<mxfile host="app.diagrams.net" modified="2023-01-18T10:21:42.358Z" agent="5.0 (Windows NT 10.0; Win64; x64) AppleWebKit/537.36 (KHTML, like Gecko) Chrome/109.0.0.0 Safari/537.36 Edg/109.0.1518.52" etag="JLj6yumvbfXCYCvT-vJ0" version="20.8.5" type="github" pages="2">
  <diagram name="Page-1" id="c7488fd3-1785-93aa-aadb-54a6760d102a">
    <mxGraphModel dx="1387" dy="884" grid="0" gridSize="10" guides="1" tooltips="1" connect="1" arrows="1" fold="1" page="1" pageScale="1" pageWidth="1100" pageHeight="850" background="none" math="0" shadow="0">
      <root>
        <mxCell id="0" />
        <mxCell id="1" parent="0" />
        <mxCell id="2b4e8129b02d487f-1" value="Processo de Login no portal SCAEI" style="swimlane;html=1;childLayout=stackLayout;horizontal=1;startSize=20;horizontalStack=0;rounded=0;shadow=0;labelBackgroundColor=none;strokeWidth=1;fontFamily=Verdana;fontSize=8;align=center;" parent="1" vertex="1">
          <mxGeometry x="180" y="130" width="875" height="501" as="geometry" />
        </mxCell>
        <mxCell id="2b4e8129b02d487f-2" value="Utilizador" style="swimlane;html=1;startSize=20;horizontal=0;" parent="2b4e8129b02d487f-1" vertex="1">
          <mxGeometry y="20" width="875" height="200" as="geometry" />
        </mxCell>
        <mxCell id="2b4e8129b02d487f-18" style="edgeStyle=orthogonalEdgeStyle;rounded=0;html=1;labelBackgroundColor=none;startArrow=none;startFill=0;startSize=5;endArrow=classicThin;endFill=1;endSize=5;jettySize=auto;orthogonalLoop=1;strokeWidth=1;fontFamily=Verdana;fontSize=8" parent="2b4e8129b02d487f-2" source="2b4e8129b02d487f-5" target="2b4e8129b02d487f-6" edge="1">
          <mxGeometry relative="1" as="geometry" />
        </mxCell>
        <mxCell id="2b4e8129b02d487f-5" value="" style="ellipse;whiteSpace=wrap;html=1;rounded=0;shadow=0;labelBackgroundColor=none;strokeWidth=1;fontFamily=Verdana;fontSize=8;align=center;fillColor=#FFFF00;" parent="2b4e8129b02d487f-2" vertex="1">
          <mxGeometry x="65" y="60" width="30" height="30" as="geometry" />
        </mxCell>
        <mxCell id="2b4e8129b02d487f-6" value="a) Abrir a página de Login do SCAEI" style="rounded=1;whiteSpace=wrap;html=1;shadow=0;labelBackgroundColor=none;strokeWidth=1;fontFamily=Verdana;fontSize=8;align=center;" parent="2b4e8129b02d487f-2" vertex="1">
          <mxGeometry x="277" y="56.49999999999997" width="70" height="37" as="geometry" />
        </mxCell>
        <mxCell id="ZIK91_UsGhoDXUHulBce-2" value="h) Direcionado ao Menu (A)" style="rounded=1;whiteSpace=wrap;html=1;shadow=0;labelBackgroundColor=none;strokeWidth=1;fontFamily=Verdana;fontSize=8;align=center;" parent="2b4e8129b02d487f-2" vertex="1">
          <mxGeometry x="513" y="56.5" width="100" height="37" as="geometry" />
        </mxCell>
        <mxCell id="ZIK91_UsGhoDXUHulBce-3" style="edgeStyle=orthogonalEdgeStyle;rounded=0;html=1;labelBackgroundColor=none;startArrow=none;startFill=0;startSize=5;endArrow=classicThin;endFill=1;endSize=5;jettySize=auto;orthogonalLoop=1;strokeWidth=1;fontFamily=Verdana;fontSize=8;exitX=1;exitY=0.5;exitDx=0;exitDy=0;" parent="2b4e8129b02d487f-2" source="2b4e8129b02d487f-6" edge="1">
          <mxGeometry relative="1" as="geometry">
            <mxPoint x="348" y="97" as="sourcePoint" />
            <mxPoint x="388" y="75" as="targetPoint" />
          </mxGeometry>
        </mxCell>
        <mxCell id="ZIK91_UsGhoDXUHulBce-4" style="edgeStyle=orthogonalEdgeStyle;rounded=0;html=1;labelBackgroundColor=none;startArrow=none;startFill=0;startSize=5;endArrow=classicThin;endFill=1;endSize=5;jettySize=auto;orthogonalLoop=1;strokeWidth=1;fontFamily=Verdana;fontSize=8;entryX=0;entryY=0.5;entryDx=0;entryDy=0;" parent="2b4e8129b02d487f-2" source="ZIK91_UsGhoDXUHulBce-2" target="PeNAHRrHpHSTOkGYdhyV-22" edge="1">
          <mxGeometry relative="1" as="geometry">
            <mxPoint x="590.5" y="75" as="sourcePoint" />
            <mxPoint x="720.5" y="75" as="targetPoint" />
          </mxGeometry>
        </mxCell>
        <mxCell id="ZIK91_UsGhoDXUHulBce-5" value="" style="edgeStyle=orthogonalEdgeStyle;rounded=0;html=1;labelBackgroundColor=none;startArrow=none;startFill=0;startSize=5;endArrow=none;endFill=1;endSize=5;jettySize=auto;orthogonalLoop=1;strokeWidth=1;fontFamily=Verdana;fontSize=8;entryX=0;entryY=0.5;entryDx=0;entryDy=0;exitX=0;exitY=0.5;exitDx=0;exitDy=0;" parent="2b4e8129b02d487f-2" source="ZIK91_UsGhoDXUHulBce-2" target="ZIK91_UsGhoDXUHulBce-2" edge="1">
          <mxGeometry relative="1" as="geometry">
            <mxPoint x="590.5" y="75" as="sourcePoint" />
            <mxPoint x="720.5" y="75" as="targetPoint" />
          </mxGeometry>
        </mxCell>
        <mxCell id="PeNAHRrHpHSTOkGYdhyV-3" value="b) Inserir utilizador e password" style="rounded=1;whiteSpace=wrap;html=1;shadow=0;labelBackgroundColor=none;strokeWidth=1;fontFamily=Verdana;fontSize=8;align=center;" parent="2b4e8129b02d487f-2" vertex="1">
          <mxGeometry x="388" y="56.49999999999997" width="70" height="37" as="geometry" />
        </mxCell>
        <mxCell id="PeNAHRrHpHSTOkGYdhyV-22" value="" style="ellipse;whiteSpace=wrap;html=1;rounded=0;shadow=0;labelBackgroundColor=none;strokeWidth=1;fontFamily=Verdana;fontSize=8;align=center;fillColor=#FF6666;" parent="2b4e8129b02d487f-2" vertex="1">
          <mxGeometry x="788" y="65" width="20" height="20" as="geometry" />
        </mxCell>
        <mxCell id="PeNAHRrHpHSTOkGYdhyV-23" value="i) Direcionado ao Menu (B)" style="rounded=1;whiteSpace=wrap;html=1;shadow=0;labelBackgroundColor=none;strokeWidth=1;fontFamily=Verdana;fontSize=8;align=center;" parent="2b4e8129b02d487f-2" vertex="1">
          <mxGeometry x="628" y="130" width="100" height="37" as="geometry" />
        </mxCell>
        <mxCell id="PeNAHRrHpHSTOkGYdhyV-29" value="e) Preencher formulário" style="rounded=1;whiteSpace=wrap;html=1;shadow=0;labelBackgroundColor=none;strokeWidth=1;fontFamily=Verdana;fontSize=8;align=center;" parent="2b4e8129b02d487f-2" vertex="1">
          <mxGeometry x="93" y="149" width="70" height="37" as="geometry" />
        </mxCell>
        <mxCell id="PeNAHRrHpHSTOkGYdhyV-30" value="f) Submeter Dados" style="rounded=1;whiteSpace=wrap;html=1;shadow=0;labelBackgroundColor=none;strokeWidth=1;fontFamily=Verdana;fontSize=8;align=center;" parent="2b4e8129b02d487f-2" vertex="1">
          <mxGeometry x="203" y="149" width="70" height="37" as="geometry" />
        </mxCell>
        <mxCell id="PeNAHRrHpHSTOkGYdhyV-32" value="" style="endArrow=classic;html=1;rounded=0;exitX=1;exitY=0.5;exitDx=0;exitDy=0;entryX=0;entryY=0.5;entryDx=0;entryDy=0;" parent="2b4e8129b02d487f-2" source="PeNAHRrHpHSTOkGYdhyV-29" target="PeNAHRrHpHSTOkGYdhyV-30" edge="1">
          <mxGeometry width="50" height="50" relative="1" as="geometry">
            <mxPoint x="547" y="254" as="sourcePoint" />
            <mxPoint x="597" y="204" as="targetPoint" />
          </mxGeometry>
        </mxCell>
        <mxCell id="PeNAHRrHpHSTOkGYdhyV-15" style="edgeStyle=orthogonalEdgeStyle;rounded=0;html=1;labelBackgroundColor=none;startArrow=none;startFill=0;startSize=5;endArrow=classicThin;endFill=1;endSize=5;jettySize=auto;orthogonalLoop=1;strokeWidth=1;fontFamily=Verdana;fontSize=8;exitX=0;exitY=0.5;exitDx=0;exitDy=0;entryX=0.5;entryY=1;entryDx=0;entryDy=0;" parent="2b4e8129b02d487f-1" source="PeNAHRrHpHSTOkGYdhyV-13" target="PeNAHRrHpHSTOkGYdhyV-29" edge="1">
          <mxGeometry relative="1" as="geometry">
            <mxPoint x="288" y="252.0000000000001" as="sourcePoint" />
            <mxPoint x="291" y="186" as="targetPoint" />
          </mxGeometry>
        </mxCell>
        <mxCell id="PeNAHRrHpHSTOkGYdhyV-4" style="edgeStyle=orthogonalEdgeStyle;rounded=0;html=1;labelBackgroundColor=none;startArrow=none;startFill=0;startSize=5;endArrow=classicThin;endFill=1;endSize=5;jettySize=auto;orthogonalLoop=1;strokeWidth=1;fontFamily=Verdana;fontSize=8;exitX=0.5;exitY=1;exitDx=0;exitDy=0;entryX=0.5;entryY=0;entryDx=0;entryDy=0;" parent="2b4e8129b02d487f-1" source="PeNAHRrHpHSTOkGYdhyV-3" target="PeNAHRrHpHSTOkGYdhyV-5" edge="1">
          <mxGeometry relative="1" as="geometry">
            <mxPoint x="515.5" y="119.99999999999989" as="sourcePoint" />
            <mxPoint x="423" y="200" as="targetPoint" />
          </mxGeometry>
        </mxCell>
        <mxCell id="PeNAHRrHpHSTOkGYdhyV-21" value="" style="endArrow=classic;html=1;rounded=0;entryX=0.5;entryY=1;entryDx=0;entryDy=0;exitX=0.5;exitY=0;exitDx=0;exitDy=0;exitPerimeter=0;" parent="2b4e8129b02d487f-1" source="PeNAHRrHpHSTOkGYdhyV-17" target="ZIK91_UsGhoDXUHulBce-2" edge="1">
          <mxGeometry width="50" height="50" relative="1" as="geometry">
            <mxPoint x="478" y="260" as="sourcePoint" />
            <mxPoint x="528" y="210" as="targetPoint" />
          </mxGeometry>
        </mxCell>
        <mxCell id="2b4e8129b02d487f-3" value="Sistema" style="swimlane;html=1;startSize=20;horizontal=0;" parent="2b4e8129b02d487f-1" vertex="1">
          <mxGeometry y="220" width="875" height="281" as="geometry" />
        </mxCell>
        <mxCell id="ZIK91_UsGhoDXUHulBce-13" style="edgeStyle=orthogonalEdgeStyle;rounded=0;orthogonalLoop=1;jettySize=auto;html=1;exitX=0.5;exitY=1;exitDx=0;exitDy=0;fontSize=9;" parent="2b4e8129b02d487f-3" edge="1">
          <mxGeometry relative="1" as="geometry">
            <mxPoint x="404" y="151.00000000000023" as="sourcePoint" />
            <mxPoint x="404" y="151.00000000000023" as="targetPoint" />
          </mxGeometry>
        </mxCell>
        <mxCell id="ZIK91_UsGhoDXUHulBce-14" style="edgeStyle=orthogonalEdgeStyle;rounded=0;html=1;labelBackgroundColor=none;startArrow=none;startFill=0;startSize=5;endArrow=classicThin;endFill=1;endSize=5;jettySize=auto;orthogonalLoop=1;strokeWidth=1;fontFamily=Verdana;fontSize=8;exitX=0.5;exitY=1;exitDx=0;exitDy=0;entryX=0.5;entryY=0;entryDx=0;entryDy=0;" parent="2b4e8129b02d487f-3" edge="1">
          <mxGeometry relative="1" as="geometry">
            <mxPoint x="424" y="164.00000000000023" as="sourcePoint" />
            <mxPoint x="424" y="207" as="targetPoint" />
          </mxGeometry>
        </mxCell>
        <mxCell id="PeNAHRrHpHSTOkGYdhyV-5" value="c) Verifica dados" style="rounded=1;whiteSpace=wrap;html=1;shadow=0;labelBackgroundColor=none;strokeWidth=1;fontFamily=Verdana;fontSize=8;align=center;" parent="2b4e8129b02d487f-3" vertex="1">
          <mxGeometry x="389" y="69" width="70" height="37" as="geometry" />
        </mxCell>
        <mxCell id="PeNAHRrHpHSTOkGYdhyV-8" value="" style="edgeStyle=orthogonalEdgeStyle;rounded=0;orthogonalLoop=1;jettySize=auto;html=1;" parent="2b4e8129b02d487f-3" source="PeNAHRrHpHSTOkGYdhyV-6" edge="1">
          <mxGeometry relative="1" as="geometry">
            <mxPoint x="424" y="207" as="targetPoint" />
          </mxGeometry>
        </mxCell>
        <mxCell id="PeNAHRrHpHSTOkGYdhyV-6" value="" style="strokeWidth=1;html=1;shape=mxgraph.flowchart.decision;whiteSpace=wrap;rounded=1;shadow=0;labelBackgroundColor=none;fontFamily=Verdana;fontSize=8;align=center;fillColor=#FFFF33;" parent="2b4e8129b02d487f-3" vertex="1">
          <mxGeometry x="409" y="143.9999999999999" width="30" height="30" as="geometry" />
        </mxCell>
        <mxCell id="PeNAHRrHpHSTOkGYdhyV-7" value="&lt;font style=&quot;font-size: 9px;&quot;&gt;Utlizador Cadastrado ?&lt;/font&gt;" style="text;strokeColor=none;align=center;fillColor=none;html=1;verticalAlign=middle;whiteSpace=wrap;rounded=0;" parent="2b4e8129b02d487f-3" vertex="1">
          <mxGeometry x="339" y="144" width="75" height="30" as="geometry" />
        </mxCell>
        <mxCell id="PeNAHRrHpHSTOkGYdhyV-9" style="edgeStyle=orthogonalEdgeStyle;rounded=0;html=1;labelBackgroundColor=none;startArrow=none;startFill=0;startSize=5;endArrow=classicThin;endFill=1;endSize=5;jettySize=auto;orthogonalLoop=1;strokeWidth=1;fontFamily=Verdana;fontSize=8;entryX=0.5;entryY=0;entryDx=0;entryDy=0;entryPerimeter=0;" parent="2b4e8129b02d487f-3" source="PeNAHRrHpHSTOkGYdhyV-5" target="PeNAHRrHpHSTOkGYdhyV-6" edge="1">
          <mxGeometry relative="1" as="geometry">
            <mxPoint x="424" y="109" as="sourcePoint" />
            <mxPoint x="581.5" y="-26" as="targetPoint" />
          </mxGeometry>
        </mxCell>
        <mxCell id="PeNAHRrHpHSTOkGYdhyV-11" value="&lt;font style=&quot;font-size: 9px;&quot;&gt;Sim&lt;/font&gt;" style="text;html=1;align=center;verticalAlign=middle;resizable=0;points=[];autosize=1;strokeColor=none;fillColor=none;fontSize=10;" parent="2b4e8129b02d487f-3" vertex="1">
          <mxGeometry x="429" y="129" width="40" height="30" as="geometry" />
        </mxCell>
        <mxCell id="PeNAHRrHpHSTOkGYdhyV-12" value="Não" style="text;html=1;align=center;verticalAlign=middle;resizable=0;points=[];autosize=1;strokeColor=none;fillColor=none;fontSize=9;" parent="2b4e8129b02d487f-3" vertex="1">
          <mxGeometry x="389" y="189" width="40" height="20" as="geometry" />
        </mxCell>
        <mxCell id="PeNAHRrHpHSTOkGYdhyV-13" value="d) Direcionar à tela de Cadastro" style="rounded=1;whiteSpace=wrap;html=1;shadow=0;labelBackgroundColor=none;strokeWidth=1;fontFamily=Verdana;fontSize=8;align=center;" parent="2b4e8129b02d487f-3" vertex="1">
          <mxGeometry x="389" y="209" width="70" height="37" as="geometry" />
        </mxCell>
        <mxCell id="PeNAHRrHpHSTOkGYdhyV-17" value="" style="strokeWidth=1;html=1;shape=mxgraph.flowchart.decision;whiteSpace=wrap;rounded=1;shadow=0;labelBackgroundColor=none;fontFamily=Verdana;fontSize=8;align=center;fillColor=#FFFF33;" parent="2b4e8129b02d487f-3" vertex="1">
          <mxGeometry x="549" y="143.9999999999999" width="30" height="30" as="geometry" />
        </mxCell>
        <mxCell id="PeNAHRrHpHSTOkGYdhyV-18" value="&lt;font style=&quot;font-size: 9px;&quot;&gt;Valida Role&lt;/font&gt;" style="text;strokeColor=none;align=center;fillColor=none;html=1;verticalAlign=middle;whiteSpace=wrap;rounded=0;" parent="2b4e8129b02d487f-3" vertex="1">
          <mxGeometry x="526.5" y="174" width="75" height="30" as="geometry" />
        </mxCell>
        <mxCell id="PeNAHRrHpHSTOkGYdhyV-19" value="" style="endArrow=classic;html=1;rounded=0;exitX=1;exitY=0.5;exitDx=0;exitDy=0;exitPerimeter=0;entryX=0;entryY=0.5;entryDx=0;entryDy=0;entryPerimeter=0;" parent="2b4e8129b02d487f-3" source="PeNAHRrHpHSTOkGYdhyV-6" target="PeNAHRrHpHSTOkGYdhyV-17" edge="1">
          <mxGeometry width="50" height="50" relative="1" as="geometry">
            <mxPoint x="479" y="129" as="sourcePoint" />
            <mxPoint x="529" y="79" as="targetPoint" />
          </mxGeometry>
        </mxCell>
        <mxCell id="PeNAHRrHpHSTOkGYdhyV-20" value="&lt;font size=&quot;1&quot;&gt;Se role&amp;nbsp; A&lt;/font&gt;" style="text;html=1;align=center;verticalAlign=middle;resizable=0;points=[];autosize=1;strokeColor=none;fillColor=none;fontSize=10;" parent="2b4e8129b02d487f-3" vertex="1">
          <mxGeometry x="499" y="114" width="70" height="30" as="geometry" />
        </mxCell>
        <mxCell id="PeNAHRrHpHSTOkGYdhyV-24" value="&lt;font style=&quot;font-size: 9px;&quot;&gt;Se role B&lt;/font&gt;" style="text;html=1;align=center;verticalAlign=middle;resizable=0;points=[];autosize=1;strokeColor=none;fillColor=none;fontSize=10;" parent="2b4e8129b02d487f-3" vertex="1">
          <mxGeometry x="569" y="129" width="60" height="30" as="geometry" />
        </mxCell>
        <mxCell id="PeNAHRrHpHSTOkGYdhyV-34" value="g) Insere dados à base de Dados" style="rounded=1;whiteSpace=wrap;html=1;shadow=0;labelBackgroundColor=none;strokeWidth=1;fontFamily=Verdana;fontSize=8;align=center;" parent="2b4e8129b02d487f-3" vertex="1">
          <mxGeometry x="203" y="51" width="70" height="37" as="geometry" />
        </mxCell>
        <mxCell id="PeNAHRrHpHSTOkGYdhyV-38" value="" style="endArrow=classic;html=1;rounded=0;exitX=0.5;exitY=1;exitDx=0;exitDy=0;entryX=0.5;entryY=0;entryDx=0;entryDy=0;" parent="2b4e8129b02d487f-1" source="PeNAHRrHpHSTOkGYdhyV-30" target="PeNAHRrHpHSTOkGYdhyV-34" edge="1">
          <mxGeometry width="50" height="50" relative="1" as="geometry">
            <mxPoint x="450" y="272" as="sourcePoint" />
            <mxPoint x="500" y="222" as="targetPoint" />
          </mxGeometry>
        </mxCell>
        <mxCell id="PeNAHRrHpHSTOkGYdhyV-25" value="" style="endArrow=classic;html=1;rounded=0;entryX=0.5;entryY=1;entryDx=0;entryDy=0;" parent="1" target="PeNAHRrHpHSTOkGYdhyV-23" edge="1">
          <mxGeometry width="50" height="50" relative="1" as="geometry">
            <mxPoint x="858" y="510" as="sourcePoint" />
            <mxPoint x="708" y="350" as="targetPoint" />
          </mxGeometry>
        </mxCell>
        <mxCell id="PeNAHRrHpHSTOkGYdhyV-26" value="" style="endArrow=none;html=1;rounded=0;" parent="1" edge="1">
          <mxGeometry width="50" height="50" relative="1" as="geometry">
            <mxPoint x="759" y="509" as="sourcePoint" />
            <mxPoint x="859" y="509" as="targetPoint" />
          </mxGeometry>
        </mxCell>
        <mxCell id="PeNAHRrHpHSTOkGYdhyV-27" value="" style="endArrow=classic;html=1;rounded=0;entryX=0.5;entryY=1;entryDx=0;entryDy=0;" parent="1" target="PeNAHRrHpHSTOkGYdhyV-22" edge="1">
          <mxGeometry width="50" height="50" relative="1" as="geometry">
            <mxPoint x="978" y="298" as="sourcePoint" />
            <mxPoint x="711" y="349" as="targetPoint" />
          </mxGeometry>
        </mxCell>
        <mxCell id="PeNAHRrHpHSTOkGYdhyV-28" value="" style="endArrow=none;html=1;rounded=0;exitX=1;exitY=0.5;exitDx=0;exitDy=0;" parent="1" source="PeNAHRrHpHSTOkGYdhyV-23" edge="1">
          <mxGeometry width="50" height="50" relative="1" as="geometry">
            <mxPoint x="661" y="399" as="sourcePoint" />
            <mxPoint x="978" y="299" as="targetPoint" />
          </mxGeometry>
        </mxCell>
        <mxCell id="PeNAHRrHpHSTOkGYdhyV-35" value="" style="endArrow=classic;html=1;rounded=0;entryX=0.5;entryY=1;entryDx=0;entryDy=0;" parent="1" target="2b4e8129b02d487f-6" edge="1">
          <mxGeometry width="50" height="50" relative="1" as="geometry">
            <mxPoint x="492" y="420" as="sourcePoint" />
            <mxPoint x="777" y="354" as="targetPoint" />
          </mxGeometry>
        </mxCell>
        <mxCell id="PeNAHRrHpHSTOkGYdhyV-36" value="" style="endArrow=none;html=1;rounded=0;exitX=1;exitY=0.5;exitDx=0;exitDy=0;" parent="1" source="PeNAHRrHpHSTOkGYdhyV-34" edge="1">
          <mxGeometry width="50" height="50" relative="1" as="geometry">
            <mxPoint x="727" y="404" as="sourcePoint" />
            <mxPoint x="492" y="420" as="targetPoint" />
          </mxGeometry>
        </mxCell>
      </root>
    </mxGraphModel>
  </diagram>
  <diagram name="Copy of Page-1" id="SzdWc6mWp5BELP1kbu9Y">
    <mxGraphModel dx="1387" dy="884" grid="0" gridSize="10" guides="1" tooltips="1" connect="1" arrows="1" fold="1" page="1" pageScale="1" pageWidth="1100" pageHeight="850" background="none" math="0" shadow="0">
      <root>
        <mxCell id="MuRAmfL0pWtdp3mnC2OW-0" />
        <mxCell id="MuRAmfL0pWtdp3mnC2OW-1" parent="MuRAmfL0pWtdp3mnC2OW-0" />
        <mxCell id="MuRAmfL0pWtdp3mnC2OW-2" value="Processo de Login no portal SCAEI" style="swimlane;html=1;childLayout=stackLayout;horizontal=1;startSize=20;horizontalStack=0;rounded=0;shadow=0;labelBackgroundColor=none;strokeWidth=1;fontFamily=Verdana;fontSize=8;align=center;" vertex="1" parent="MuRAmfL0pWtdp3mnC2OW-1">
          <mxGeometry x="180" y="130" width="875" height="501" as="geometry" />
        </mxCell>
        <mxCell id="MuRAmfL0pWtdp3mnC2OW-3" value="Utilizador" style="swimlane;html=1;startSize=20;horizontal=0;" vertex="1" parent="MuRAmfL0pWtdp3mnC2OW-2">
          <mxGeometry y="20" width="875" height="200" as="geometry" />
        </mxCell>
        <mxCell id="MuRAmfL0pWtdp3mnC2OW-4" style="edgeStyle=orthogonalEdgeStyle;rounded=0;html=1;labelBackgroundColor=none;startArrow=none;startFill=0;startSize=5;endArrow=classicThin;endFill=1;endSize=5;jettySize=auto;orthogonalLoop=1;strokeWidth=1;fontFamily=Verdana;fontSize=8" edge="1" parent="MuRAmfL0pWtdp3mnC2OW-3" source="MuRAmfL0pWtdp3mnC2OW-5" target="MuRAmfL0pWtdp3mnC2OW-6">
          <mxGeometry relative="1" as="geometry" />
        </mxCell>
        <mxCell id="MuRAmfL0pWtdp3mnC2OW-5" value="" style="ellipse;whiteSpace=wrap;html=1;rounded=0;shadow=0;labelBackgroundColor=none;strokeWidth=1;fontFamily=Verdana;fontSize=8;align=center;fillColor=#FFFF00;" vertex="1" parent="MuRAmfL0pWtdp3mnC2OW-3">
          <mxGeometry x="65" y="60" width="30" height="30" as="geometry" />
        </mxCell>
        <mxCell id="MuRAmfL0pWtdp3mnC2OW-6" value="a) Abrir a página de Login do SCAEI" style="rounded=1;whiteSpace=wrap;html=1;shadow=0;labelBackgroundColor=none;strokeWidth=1;fontFamily=Verdana;fontSize=8;align=center;" vertex="1" parent="MuRAmfL0pWtdp3mnC2OW-3">
          <mxGeometry x="277" y="56.49999999999997" width="70" height="37" as="geometry" />
        </mxCell>
        <mxCell id="MuRAmfL0pWtdp3mnC2OW-7" value="h) Direcionado ao Menu (A)" style="rounded=1;whiteSpace=wrap;html=1;shadow=0;labelBackgroundColor=none;strokeWidth=1;fontFamily=Verdana;fontSize=8;align=center;" vertex="1" parent="MuRAmfL0pWtdp3mnC2OW-3">
          <mxGeometry x="513" y="56.5" width="100" height="37" as="geometry" />
        </mxCell>
        <mxCell id="MuRAmfL0pWtdp3mnC2OW-8" style="edgeStyle=orthogonalEdgeStyle;rounded=0;html=1;labelBackgroundColor=none;startArrow=none;startFill=0;startSize=5;endArrow=classicThin;endFill=1;endSize=5;jettySize=auto;orthogonalLoop=1;strokeWidth=1;fontFamily=Verdana;fontSize=8;exitX=1;exitY=0.5;exitDx=0;exitDy=0;" edge="1" parent="MuRAmfL0pWtdp3mnC2OW-3" source="MuRAmfL0pWtdp3mnC2OW-6">
          <mxGeometry relative="1" as="geometry">
            <mxPoint x="348" y="97" as="sourcePoint" />
            <mxPoint x="388" y="75" as="targetPoint" />
          </mxGeometry>
        </mxCell>
        <mxCell id="MuRAmfL0pWtdp3mnC2OW-9" style="edgeStyle=orthogonalEdgeStyle;rounded=0;html=1;labelBackgroundColor=none;startArrow=none;startFill=0;startSize=5;endArrow=classicThin;endFill=1;endSize=5;jettySize=auto;orthogonalLoop=1;strokeWidth=1;fontFamily=Verdana;fontSize=8;entryX=0;entryY=0.5;entryDx=0;entryDy=0;" edge="1" parent="MuRAmfL0pWtdp3mnC2OW-3" source="MuRAmfL0pWtdp3mnC2OW-7" target="MuRAmfL0pWtdp3mnC2OW-12">
          <mxGeometry relative="1" as="geometry">
            <mxPoint x="590.5" y="75" as="sourcePoint" />
            <mxPoint x="720.5" y="75" as="targetPoint" />
          </mxGeometry>
        </mxCell>
        <mxCell id="MuRAmfL0pWtdp3mnC2OW-10" value="" style="edgeStyle=orthogonalEdgeStyle;rounded=0;html=1;labelBackgroundColor=none;startArrow=none;startFill=0;startSize=5;endArrow=none;endFill=1;endSize=5;jettySize=auto;orthogonalLoop=1;strokeWidth=1;fontFamily=Verdana;fontSize=8;entryX=0;entryY=0.5;entryDx=0;entryDy=0;exitX=0;exitY=0.5;exitDx=0;exitDy=0;" edge="1" parent="MuRAmfL0pWtdp3mnC2OW-3" source="MuRAmfL0pWtdp3mnC2OW-7" target="MuRAmfL0pWtdp3mnC2OW-7">
          <mxGeometry relative="1" as="geometry">
            <mxPoint x="590.5" y="75" as="sourcePoint" />
            <mxPoint x="720.5" y="75" as="targetPoint" />
          </mxGeometry>
        </mxCell>
        <mxCell id="MuRAmfL0pWtdp3mnC2OW-11" value="b) Inserir utilizador e password" style="rounded=1;whiteSpace=wrap;html=1;shadow=0;labelBackgroundColor=none;strokeWidth=1;fontFamily=Verdana;fontSize=8;align=center;" vertex="1" parent="MuRAmfL0pWtdp3mnC2OW-3">
          <mxGeometry x="388" y="56.49999999999997" width="70" height="37" as="geometry" />
        </mxCell>
        <mxCell id="MuRAmfL0pWtdp3mnC2OW-12" value="" style="ellipse;whiteSpace=wrap;html=1;rounded=0;shadow=0;labelBackgroundColor=none;strokeWidth=1;fontFamily=Verdana;fontSize=8;align=center;fillColor=#FF6666;" vertex="1" parent="MuRAmfL0pWtdp3mnC2OW-3">
          <mxGeometry x="788" y="65" width="20" height="20" as="geometry" />
        </mxCell>
        <mxCell id="MuRAmfL0pWtdp3mnC2OW-13" value="i) Direcionado ao Menu (B)" style="rounded=1;whiteSpace=wrap;html=1;shadow=0;labelBackgroundColor=none;strokeWidth=1;fontFamily=Verdana;fontSize=8;align=center;" vertex="1" parent="MuRAmfL0pWtdp3mnC2OW-3">
          <mxGeometry x="628" y="130" width="100" height="37" as="geometry" />
        </mxCell>
        <mxCell id="MuRAmfL0pWtdp3mnC2OW-14" value="e) Preencher formulário" style="rounded=1;whiteSpace=wrap;html=1;shadow=0;labelBackgroundColor=none;strokeWidth=1;fontFamily=Verdana;fontSize=8;align=center;" vertex="1" parent="MuRAmfL0pWtdp3mnC2OW-3">
          <mxGeometry x="93" y="149" width="70" height="37" as="geometry" />
        </mxCell>
        <mxCell id="MuRAmfL0pWtdp3mnC2OW-15" value="f) Submeter Dados" style="rounded=1;whiteSpace=wrap;html=1;shadow=0;labelBackgroundColor=none;strokeWidth=1;fontFamily=Verdana;fontSize=8;align=center;" vertex="1" parent="MuRAmfL0pWtdp3mnC2OW-3">
          <mxGeometry x="203" y="149" width="70" height="37" as="geometry" />
        </mxCell>
        <mxCell id="MuRAmfL0pWtdp3mnC2OW-16" value="" style="endArrow=classic;html=1;rounded=0;exitX=1;exitY=0.5;exitDx=0;exitDy=0;entryX=0;entryY=0.5;entryDx=0;entryDy=0;" edge="1" parent="MuRAmfL0pWtdp3mnC2OW-3" source="MuRAmfL0pWtdp3mnC2OW-14" target="MuRAmfL0pWtdp3mnC2OW-15">
          <mxGeometry width="50" height="50" relative="1" as="geometry">
            <mxPoint x="547" y="254" as="sourcePoint" />
            <mxPoint x="597" y="204" as="targetPoint" />
          </mxGeometry>
        </mxCell>
        <mxCell id="MuRAmfL0pWtdp3mnC2OW-17" style="edgeStyle=orthogonalEdgeStyle;rounded=0;html=1;labelBackgroundColor=none;startArrow=none;startFill=0;startSize=5;endArrow=classicThin;endFill=1;endSize=5;jettySize=auto;orthogonalLoop=1;strokeWidth=1;fontFamily=Verdana;fontSize=8;exitX=0;exitY=0.5;exitDx=0;exitDy=0;entryX=0.5;entryY=1;entryDx=0;entryDy=0;" edge="1" parent="MuRAmfL0pWtdp3mnC2OW-2" source="MuRAmfL0pWtdp3mnC2OW-30" target="MuRAmfL0pWtdp3mnC2OW-14">
          <mxGeometry relative="1" as="geometry">
            <mxPoint x="288" y="252.0000000000001" as="sourcePoint" />
            <mxPoint x="291" y="186" as="targetPoint" />
          </mxGeometry>
        </mxCell>
        <mxCell id="MuRAmfL0pWtdp3mnC2OW-18" style="edgeStyle=orthogonalEdgeStyle;rounded=0;html=1;labelBackgroundColor=none;startArrow=none;startFill=0;startSize=5;endArrow=classicThin;endFill=1;endSize=5;jettySize=auto;orthogonalLoop=1;strokeWidth=1;fontFamily=Verdana;fontSize=8;exitX=0.5;exitY=1;exitDx=0;exitDy=0;entryX=0.5;entryY=0;entryDx=0;entryDy=0;" edge="1" parent="MuRAmfL0pWtdp3mnC2OW-2" source="MuRAmfL0pWtdp3mnC2OW-11" target="MuRAmfL0pWtdp3mnC2OW-23">
          <mxGeometry relative="1" as="geometry">
            <mxPoint x="515.5" y="119.99999999999989" as="sourcePoint" />
            <mxPoint x="423" y="200" as="targetPoint" />
          </mxGeometry>
        </mxCell>
        <mxCell id="MuRAmfL0pWtdp3mnC2OW-19" value="" style="endArrow=classic;html=1;rounded=0;entryX=0.5;entryY=1;entryDx=0;entryDy=0;exitX=0.5;exitY=0;exitDx=0;exitDy=0;exitPerimeter=0;" edge="1" parent="MuRAmfL0pWtdp3mnC2OW-2" source="MuRAmfL0pWtdp3mnC2OW-31" target="MuRAmfL0pWtdp3mnC2OW-7">
          <mxGeometry width="50" height="50" relative="1" as="geometry">
            <mxPoint x="478" y="260" as="sourcePoint" />
            <mxPoint x="528" y="210" as="targetPoint" />
          </mxGeometry>
        </mxCell>
        <mxCell id="MuRAmfL0pWtdp3mnC2OW-20" value="Sistema" style="swimlane;html=1;startSize=20;horizontal=0;" vertex="1" parent="MuRAmfL0pWtdp3mnC2OW-2">
          <mxGeometry y="220" width="875" height="281" as="geometry" />
        </mxCell>
        <mxCell id="MuRAmfL0pWtdp3mnC2OW-21" style="edgeStyle=orthogonalEdgeStyle;rounded=0;orthogonalLoop=1;jettySize=auto;html=1;exitX=0.5;exitY=1;exitDx=0;exitDy=0;fontSize=9;" edge="1" parent="MuRAmfL0pWtdp3mnC2OW-20">
          <mxGeometry relative="1" as="geometry">
            <mxPoint x="404" y="151.00000000000023" as="sourcePoint" />
            <mxPoint x="404" y="151.00000000000023" as="targetPoint" />
          </mxGeometry>
        </mxCell>
        <mxCell id="MuRAmfL0pWtdp3mnC2OW-22" style="edgeStyle=orthogonalEdgeStyle;rounded=0;html=1;labelBackgroundColor=none;startArrow=none;startFill=0;startSize=5;endArrow=classicThin;endFill=1;endSize=5;jettySize=auto;orthogonalLoop=1;strokeWidth=1;fontFamily=Verdana;fontSize=8;exitX=0.5;exitY=1;exitDx=0;exitDy=0;entryX=0.5;entryY=0;entryDx=0;entryDy=0;" edge="1" parent="MuRAmfL0pWtdp3mnC2OW-20">
          <mxGeometry relative="1" as="geometry">
            <mxPoint x="424" y="164.00000000000023" as="sourcePoint" />
            <mxPoint x="424" y="207" as="targetPoint" />
          </mxGeometry>
        </mxCell>
        <mxCell id="MuRAmfL0pWtdp3mnC2OW-23" value="c) Verifica dados" style="rounded=1;whiteSpace=wrap;html=1;shadow=0;labelBackgroundColor=none;strokeWidth=1;fontFamily=Verdana;fontSize=8;align=center;" vertex="1" parent="MuRAmfL0pWtdp3mnC2OW-20">
          <mxGeometry x="389" y="69" width="70" height="37" as="geometry" />
        </mxCell>
        <mxCell id="MuRAmfL0pWtdp3mnC2OW-24" value="" style="edgeStyle=orthogonalEdgeStyle;rounded=0;orthogonalLoop=1;jettySize=auto;html=1;" edge="1" parent="MuRAmfL0pWtdp3mnC2OW-20" source="MuRAmfL0pWtdp3mnC2OW-25">
          <mxGeometry relative="1" as="geometry">
            <mxPoint x="424" y="207" as="targetPoint" />
          </mxGeometry>
        </mxCell>
        <mxCell id="MuRAmfL0pWtdp3mnC2OW-25" value="" style="strokeWidth=1;html=1;shape=mxgraph.flowchart.decision;whiteSpace=wrap;rounded=1;shadow=0;labelBackgroundColor=none;fontFamily=Verdana;fontSize=8;align=center;fillColor=#FFFF33;" vertex="1" parent="MuRAmfL0pWtdp3mnC2OW-20">
          <mxGeometry x="409" y="143.9999999999999" width="30" height="30" as="geometry" />
        </mxCell>
        <mxCell id="MuRAmfL0pWtdp3mnC2OW-26" value="&lt;font style=&quot;font-size: 9px;&quot;&gt;Utlizador Cadastrado ?&lt;/font&gt;" style="text;strokeColor=none;align=center;fillColor=none;html=1;verticalAlign=middle;whiteSpace=wrap;rounded=0;" vertex="1" parent="MuRAmfL0pWtdp3mnC2OW-20">
          <mxGeometry x="339" y="144" width="75" height="30" as="geometry" />
        </mxCell>
        <mxCell id="MuRAmfL0pWtdp3mnC2OW-27" style="edgeStyle=orthogonalEdgeStyle;rounded=0;html=1;labelBackgroundColor=none;startArrow=none;startFill=0;startSize=5;endArrow=classicThin;endFill=1;endSize=5;jettySize=auto;orthogonalLoop=1;strokeWidth=1;fontFamily=Verdana;fontSize=8;entryX=0.5;entryY=0;entryDx=0;entryDy=0;entryPerimeter=0;" edge="1" parent="MuRAmfL0pWtdp3mnC2OW-20" source="MuRAmfL0pWtdp3mnC2OW-23" target="MuRAmfL0pWtdp3mnC2OW-25">
          <mxGeometry relative="1" as="geometry">
            <mxPoint x="424" y="109" as="sourcePoint" />
            <mxPoint x="581.5" y="-26" as="targetPoint" />
          </mxGeometry>
        </mxCell>
        <mxCell id="MuRAmfL0pWtdp3mnC2OW-28" value="&lt;font style=&quot;font-size: 9px;&quot;&gt;Sim&lt;/font&gt;" style="text;html=1;align=center;verticalAlign=middle;resizable=0;points=[];autosize=1;strokeColor=none;fillColor=none;fontSize=10;" vertex="1" parent="MuRAmfL0pWtdp3mnC2OW-20">
          <mxGeometry x="429" y="129" width="40" height="30" as="geometry" />
        </mxCell>
        <mxCell id="MuRAmfL0pWtdp3mnC2OW-29" value="Não" style="text;html=1;align=center;verticalAlign=middle;resizable=0;points=[];autosize=1;strokeColor=none;fillColor=none;fontSize=9;" vertex="1" parent="MuRAmfL0pWtdp3mnC2OW-20">
          <mxGeometry x="389" y="189" width="40" height="20" as="geometry" />
        </mxCell>
        <mxCell id="MuRAmfL0pWtdp3mnC2OW-30" value="d) Direcionar à tela de Cadastro" style="rounded=1;whiteSpace=wrap;html=1;shadow=0;labelBackgroundColor=none;strokeWidth=1;fontFamily=Verdana;fontSize=8;align=center;" vertex="1" parent="MuRAmfL0pWtdp3mnC2OW-20">
          <mxGeometry x="389" y="209" width="70" height="37" as="geometry" />
        </mxCell>
        <mxCell id="MuRAmfL0pWtdp3mnC2OW-31" value="" style="strokeWidth=1;html=1;shape=mxgraph.flowchart.decision;whiteSpace=wrap;rounded=1;shadow=0;labelBackgroundColor=none;fontFamily=Verdana;fontSize=8;align=center;fillColor=#FFFF33;" vertex="1" parent="MuRAmfL0pWtdp3mnC2OW-20">
          <mxGeometry x="549" y="143.9999999999999" width="30" height="30" as="geometry" />
        </mxCell>
        <mxCell id="MuRAmfL0pWtdp3mnC2OW-32" value="&lt;font style=&quot;font-size: 9px;&quot;&gt;Valida Role&lt;/font&gt;" style="text;strokeColor=none;align=center;fillColor=none;html=1;verticalAlign=middle;whiteSpace=wrap;rounded=0;" vertex="1" parent="MuRAmfL0pWtdp3mnC2OW-20">
          <mxGeometry x="526.5" y="174" width="75" height="30" as="geometry" />
        </mxCell>
        <mxCell id="MuRAmfL0pWtdp3mnC2OW-33" value="" style="endArrow=classic;html=1;rounded=0;exitX=1;exitY=0.5;exitDx=0;exitDy=0;exitPerimeter=0;entryX=0;entryY=0.5;entryDx=0;entryDy=0;entryPerimeter=0;" edge="1" parent="MuRAmfL0pWtdp3mnC2OW-20" source="MuRAmfL0pWtdp3mnC2OW-25" target="MuRAmfL0pWtdp3mnC2OW-31">
          <mxGeometry width="50" height="50" relative="1" as="geometry">
            <mxPoint x="479" y="129" as="sourcePoint" />
            <mxPoint x="529" y="79" as="targetPoint" />
          </mxGeometry>
        </mxCell>
        <mxCell id="MuRAmfL0pWtdp3mnC2OW-34" value="&lt;font size=&quot;1&quot;&gt;Se role&amp;nbsp; A&lt;/font&gt;" style="text;html=1;align=center;verticalAlign=middle;resizable=0;points=[];autosize=1;strokeColor=none;fillColor=none;fontSize=10;" vertex="1" parent="MuRAmfL0pWtdp3mnC2OW-20">
          <mxGeometry x="499" y="114" width="70" height="30" as="geometry" />
        </mxCell>
        <mxCell id="MuRAmfL0pWtdp3mnC2OW-35" value="&lt;font style=&quot;font-size: 9px;&quot;&gt;Se role B&lt;/font&gt;" style="text;html=1;align=center;verticalAlign=middle;resizable=0;points=[];autosize=1;strokeColor=none;fillColor=none;fontSize=10;" vertex="1" parent="MuRAmfL0pWtdp3mnC2OW-20">
          <mxGeometry x="569" y="129" width="60" height="30" as="geometry" />
        </mxCell>
        <mxCell id="MuRAmfL0pWtdp3mnC2OW-36" value="g) Insere dados à base de Dados" style="rounded=1;whiteSpace=wrap;html=1;shadow=0;labelBackgroundColor=none;strokeWidth=1;fontFamily=Verdana;fontSize=8;align=center;" vertex="1" parent="MuRAmfL0pWtdp3mnC2OW-20">
          <mxGeometry x="203" y="51" width="70" height="37" as="geometry" />
        </mxCell>
        <mxCell id="MuRAmfL0pWtdp3mnC2OW-37" value="" style="endArrow=classic;html=1;rounded=0;exitX=0.5;exitY=1;exitDx=0;exitDy=0;entryX=0.5;entryY=0;entryDx=0;entryDy=0;" edge="1" parent="MuRAmfL0pWtdp3mnC2OW-2" source="MuRAmfL0pWtdp3mnC2OW-15" target="MuRAmfL0pWtdp3mnC2OW-36">
          <mxGeometry width="50" height="50" relative="1" as="geometry">
            <mxPoint x="450" y="272" as="sourcePoint" />
            <mxPoint x="500" y="222" as="targetPoint" />
          </mxGeometry>
        </mxCell>
        <mxCell id="MuRAmfL0pWtdp3mnC2OW-38" value="" style="endArrow=classic;html=1;rounded=0;entryX=0.5;entryY=1;entryDx=0;entryDy=0;" edge="1" parent="MuRAmfL0pWtdp3mnC2OW-1" target="MuRAmfL0pWtdp3mnC2OW-13">
          <mxGeometry width="50" height="50" relative="1" as="geometry">
            <mxPoint x="858" y="510" as="sourcePoint" />
            <mxPoint x="708" y="350" as="targetPoint" />
          </mxGeometry>
        </mxCell>
        <mxCell id="MuRAmfL0pWtdp3mnC2OW-39" value="" style="endArrow=none;html=1;rounded=0;" edge="1" parent="MuRAmfL0pWtdp3mnC2OW-1">
          <mxGeometry width="50" height="50" relative="1" as="geometry">
            <mxPoint x="759" y="509" as="sourcePoint" />
            <mxPoint x="859" y="509" as="targetPoint" />
          </mxGeometry>
        </mxCell>
        <mxCell id="MuRAmfL0pWtdp3mnC2OW-40" value="" style="endArrow=classic;html=1;rounded=0;entryX=0.5;entryY=1;entryDx=0;entryDy=0;" edge="1" parent="MuRAmfL0pWtdp3mnC2OW-1" target="MuRAmfL0pWtdp3mnC2OW-12">
          <mxGeometry width="50" height="50" relative="1" as="geometry">
            <mxPoint x="978" y="298" as="sourcePoint" />
            <mxPoint x="711" y="349" as="targetPoint" />
          </mxGeometry>
        </mxCell>
        <mxCell id="MuRAmfL0pWtdp3mnC2OW-41" value="" style="endArrow=none;html=1;rounded=0;exitX=1;exitY=0.5;exitDx=0;exitDy=0;" edge="1" parent="MuRAmfL0pWtdp3mnC2OW-1" source="MuRAmfL0pWtdp3mnC2OW-13">
          <mxGeometry width="50" height="50" relative="1" as="geometry">
            <mxPoint x="661" y="399" as="sourcePoint" />
            <mxPoint x="978" y="299" as="targetPoint" />
          </mxGeometry>
        </mxCell>
        <mxCell id="MuRAmfL0pWtdp3mnC2OW-42" value="" style="endArrow=classic;html=1;rounded=0;entryX=0.5;entryY=1;entryDx=0;entryDy=0;" edge="1" parent="MuRAmfL0pWtdp3mnC2OW-1" target="MuRAmfL0pWtdp3mnC2OW-6">
          <mxGeometry width="50" height="50" relative="1" as="geometry">
            <mxPoint x="492" y="420" as="sourcePoint" />
            <mxPoint x="777" y="354" as="targetPoint" />
          </mxGeometry>
        </mxCell>
        <mxCell id="MuRAmfL0pWtdp3mnC2OW-43" value="" style="endArrow=none;html=1;rounded=0;exitX=1;exitY=0.5;exitDx=0;exitDy=0;" edge="1" parent="MuRAmfL0pWtdp3mnC2OW-1" source="MuRAmfL0pWtdp3mnC2OW-36">
          <mxGeometry width="50" height="50" relative="1" as="geometry">
            <mxPoint x="727" y="404" as="sourcePoint" />
            <mxPoint x="492" y="420" as="targetPoint" />
          </mxGeometry>
        </mxCell>
      </root>
    </mxGraphModel>
  </diagram>
</mxfile>
